Coordinates
version=1
nRows=16
nColumns=40
inDegrees=yes

Units are S.I. units (second, meters, Newtons, ...)
If the header above contains a line with 'inDegrees', this indicates whether rotational values are in degrees (yes) or radians (no).

endheader
time	pelvis_tilt	pelvis_list	pelvis_rotation	pelvis_tx	pelvis_ty	pelvis_tz	hip_flexion_r	hip_adduction_r	hip_rotation_r	knee_angle_r	knee_angle_r_beta	ankle_angle_r	subtalar_angle_r	mtp_angle_r	hip_flexion_l	hip_adduction_l	hip_rotation_l	knee_angle_l	knee_angle_l_beta	ankle_angle_l	subtalar_angle_l	mtp_angle_l	lumbar_extension	lumbar_bending	lumbar_rotation	arm_flex_r	arm_add_r	arm_rot_r	elbow_flex_r	pro_sup_r	wrist_flex_r	wrist_dev_r	arm_flex_l	arm_add_l	arm_rot_l	elbow_flex_l	pro_sup_l	wrist_flex_l	wrist_dev_l
      4.57500000	    -18.88888168	      5.63858814	      4.38318102	     -0.31120343	      0.89576640	     -0.99333288	     26.71132063	    -10.63976084	     -4.61986006	     88.14936394	      1.53849663	     -4.83870718	      0.00000000	      0.00000000	     53.15598959	      6.26613388	     -8.63664061	     61.80833937	      1.07875903	     18.78674667	      0.00000000	      0.00000000	      3.38902730	     -9.37895372	    -10.43922919	     89.94364837	     -0.91295996	     35.47051397	     48.84757693	     84.02330281	      0.00000000	      0.00000000	     89.95773888	    -18.25289457	     37.69683980	     55.91892152	     86.14756810	      0.00000000	      0.00000000
      4.58000000	    -18.85335212	      5.56669661	      4.41794209	     -0.31104474	      0.89654625	     -0.99317804	     26.74044665	    -10.51281808	     -4.56217922	     88.20267062	      1.53942701	     -4.82541424	      0.00000000	      0.00000000	     52.99324882	      6.31169436	     -8.39476384	     61.51455588	      1.07363154	     18.64461833	      0.00000000	      0.00000000	      3.38337010	     -9.28891614	    -10.44977453	     89.94351683	     -0.91305836	     35.41875185	     48.88344629	     84.02117340	      0.00000000	      0.00000000	     89.95794825	    -18.26070398	     37.78092884	     55.89166167	     86.15646800	      0.00000000	      0.00000000
      4.58500000	    -18.84784568	      5.56357013	      4.42186146	     -0.31071255	      0.89712027	     -0.99304393	     26.73689951	    -10.49983080	     -4.56610581	     88.20075915	      1.53939365	     -4.82203139	      0.00000000	      0.00000000	     52.95284244	      6.33190152	     -8.39214818	     61.48809298	      1.07316967	     18.63698376	      0.00000000	      0.00000000	      3.42816235	     -9.28311901	    -10.43874883	     89.94312229	     -0.91304337	     35.40846087	     48.88985149	     84.02095797	      0.00000000	      0.00000000	     89.95798928	    -18.26409992	     37.75185723	     55.91808425	     86.15469199	      0.00000000	      0.00000000
      4.59000000	    -18.75070341	      5.58864528	      4.34684595	     -0.31022495	      0.89782490	     -0.99292599	     26.69960064	    -10.46016884	     -4.43082016	     88.26053742	      1.54043698	     -4.80547709	      0.00000000	      0.00000000	     52.71616362	      6.38540569	     -8.22447873	     61.27681075	      1.06948210	     18.61161192	      0.00000000	      0.00000000	      3.42701664	     -9.28361179	    -10.35947468	     89.94322655	     -0.89514536	     35.45369510	     48.85756096	     84.02393348	      0.00000000	      0.00000000	     89.95788535	    -18.28437227	     37.86056551	     55.87151323	     86.16376432	      0.00000000	      0.00000000
      4.59500000	    -18.73869256	      5.58309249	      4.34783478	     -0.30990333	      0.89836832	     -0.99284075	     26.70199382	    -10.44677187	     -4.42028380	     88.23949440	      1.54006971	     -4.80382621	      0.00000000	      0.00000000	     52.67272341	      6.40117448	     -8.21125827	     61.25017709	      1.06901726	     18.60601119	      0.00000000	      0.00000000	      3.47045385	     -9.28348214	    -10.36299399	     89.94320463	     -0.89389143	     35.43894982	     48.87279948	     84.02347081	      0.00000000	      0.00000000	     89.95764426	    -18.28812275	     37.84662421	     55.88434067	     86.16287555	      0.00000000	      0.00000000
      4.60000000	    -18.71968635	      5.57365259	      4.35529452	     -0.30957718	      0.89895425	     -0.99271647	     26.71034801	    -10.42115693	     -4.40166910	     88.23678988	      1.54002250	     -4.80233162	      0.00000000	      0.00000000	     52.60250241	      6.41467293	     -8.18142880	     61.20623753	      1.06825037	     18.59616273	      0.00000000	      0.00000000	      3.51234979	     -9.26770064	    -10.35563747	     89.94297788	     -0.89386348	     35.42858479	     48.88374609	     84.02319163	      0.00000000	      0.00000000	     89.95776295	    -18.29540762	     37.82552810	     55.90095153	     86.16133348	      0.00000000	      0.00000000
      4.60500000	    -18.60309825	      5.54419351	      4.31603794	     -0.30922977	      0.89973293	     -0.99258115	     26.65618645	    -10.29192789	     -4.25997480	     88.30830063	      1.54127060	     -4.79227524	      0.00000000	      0.00000000	     52.32317145	      6.48029738	     -7.93995487	     60.88372097	      1.06262139	     18.52663004	      0.00000000	      0.00000000	      3.45902512	     -9.21500915	    -10.31118541	     89.94310103	     -0.91538753	     35.49566884	     48.83954038	     84.02707952	      0.00000000	      0.00000000	     89.95773722	    -18.30778224	     37.97000640	     55.86405434	     86.17343594	      0.00000000	      0.00000000
      4.61000000	    -18.58814014	      5.54230780	      4.32516234	     -0.30889870	      0.90036307	     -0.99246538	     26.66114425	    -10.27939074	     -4.26201370	     88.29620662	      1.54105952	     -4.78977411	      0.00000000	      0.00000000	     52.25873013	      6.49036967	     -7.92392972	     60.84861942	      1.06200875	     18.51929352	      0.00000000	      0.00000000	      3.49851167	     -9.20969951	    -10.30481130	     89.94304534	     -0.90637300	     35.48205853	     48.85904333	     84.02669207	      0.00000000	      0.00000000	     89.95753250	    -18.31499715	     37.95646403	     55.87449070	     86.17246407	      0.00000000	      0.00000000
      4.61500000	    -18.41181286	      5.51726953	      4.31945396	     -0.30852025	      0.90129024	     -0.99233508	     26.50409819	    -10.17910425	     -4.18797026	     88.29165688	      1.54098011	     -4.78578120	      0.00000000	      0.00000000	     51.91209621	      6.54331680	     -7.75695801	     60.51662012	      1.05621427	     18.44915149	      0.00000000	      0.00000000	      3.37177003	     -9.15947672	    -10.31386891	     89.94303555	     -0.90477093	     35.52828885	     48.83705753	     84.02981032	      0.00000000	      0.00000000	     89.95769460	    -18.33819284	     38.08072849	     55.83768542	     86.18060808	      0.00000000	      0.00000000
      4.62000000	    -18.25096489	      5.54818922	      4.33015515	     -0.30791386	      0.90213530	     -0.99231422	     26.30590984	    -10.20169172	     -4.19634248	     88.22754058	      1.53986107	     -4.76370491	      0.00000000	      0.00000000	     51.62026080	      6.65930241	     -7.60862581	     60.34810199	      1.05327308	     18.47572088	      0.00000000	      0.00000000	      3.25778283	     -9.16956539	    -10.31347172	     89.94301772	     -0.93228504	     35.59910301	     48.84191906	     84.03582715	      0.00000000	      0.00000000	     89.95761974	    -18.37797023	     38.14776714	     55.90748596	     86.19263328	      0.00000000	      0.00000000
      4.62500000	    -18.23670737	      5.54368592	      4.33219936	     -0.30758922	      0.90269616	     -0.99225183	     26.32739871	    -10.19717641	     -4.18811453	     88.21256803	      1.53959975	     -4.76366274	      0.00000000	      0.00000000	     51.56812236	      6.67053165	     -7.59791608	     60.33283748	      1.05300666	     18.47016168	      0.00000000	      0.00000000	      3.30687054	     -9.15922870	    -10.31025602	     89.94276309	     -0.93138216	     35.58618229	     48.85887088	     84.03540635	      0.00000000	      0.00000000	     89.95735091	    -18.38760639	     38.12985999	     55.91323047	     86.19100223	      0.00000000	      0.00000000
      4.63000000	    -18.15025146	      5.52911767	      4.30343354	     -0.30718588	      0.90344984	     -0.99215068	     26.28758866	    -10.09992307	     -4.09205719	     88.19793243	      1.53934431	     -4.77450676	      0.00000000	      0.00000000	     51.35556830	      6.73715207	     -7.38821288	     60.11010859	      1.04911931	     18.39490179	      0.00000000	      0.00000000	      3.28358340	     -9.12174467	    -10.28333362	     89.94285674	     -0.93662418	     35.67578243	     48.82599381	     84.04118336	      0.00000000	      0.00000000	     89.95749967	    -18.42108268	     38.23640933	     55.88162329	     86.20035053	      0.00000000	      0.00000000
      4.63500000	    -18.14103964	      5.52613217	      4.31326772	     -0.30680861	      0.90404100	     -0.99205952	     26.30650064	    -10.09192866	     -4.09835571	     88.18688318	      1.53915147	     -4.77337286	      0.00000000	      0.00000000	     51.29267655	      6.73767410	     -7.37314252	     60.08304765	      1.04864701	     18.38842560	      0.00000000	      0.00000000	      3.33822782	     -9.11657593	    -10.28311712	     89.94258288	     -0.93759490	     35.66563541	     48.84081849	     84.04101149	      0.00000000	      0.00000000	     89.95735983	    -18.42543527	     38.21404704	     55.89948382	     86.19911713	      0.00000000	      0.00000000
      4.64000000	    -18.12109568	      5.51376834	      4.32338946	     -0.30653120	      0.90461445	     -0.99198492	     26.32703110	    -10.06646796	     -4.09215250	     88.18035212	      1.53903748	     -4.77279414	      0.00000000	      0.00000000	     51.22914318	      6.74805176	     -7.36409823	     60.03205289	      1.04775698	     18.37763564	      0.00000000	      0.00000000	      3.37180023	     -9.09817984	    -10.28797538	     89.94243283	     -0.94287028	     35.66129045	     48.85075658	     84.04107309	      0.00000000	      0.00000000	     89.95722746	    -18.42938826	     38.20187489	     55.91254484	     86.19846867	      0.00000000	      0.00000000
      4.64500000	    -17.99576600	      5.46249003	      4.31574413	     -0.30614882	      0.90551383	     -0.99180595	     26.25113025	     -9.92475468	     -4.03040798	     88.19626592	      1.53931523	     -4.79981390	      0.00000000	      0.00000000	     50.92698108	      6.78074083	     -7.12758513	     59.68788196	      1.04175006	     18.25480667	      0.00000000	      0.00000000	      3.31789982	     -9.02757414	    -10.24923829	     89.94248964	     -0.97962224	     35.78057376	     48.79797069	     84.04996100	      0.00000000	      0.00000000	     89.95728637	    -18.44637447	     38.39739072	     55.86699271	     86.21758483	      0.00000000	      0.00000000
      4.65000000	    -17.97642113	      5.46268041	      4.31054067	     -0.30578745	      0.90611033	     -0.99170805	     26.26516869	     -9.91326570	     -4.03747213	     88.17793257	      1.53899525	     -4.79869278	      0.00000000	      0.00000000	     50.86586015	      6.78679687	     -7.11054988	     59.66457619	      1.04134330	     18.24610590	      0.00000000	      0.00000000	      3.36271357	     -9.02261864	    -10.24850785	     89.94222585	     -0.97743437	     35.77378929	     48.81378227	     84.04991962	      0.00000000	      0.00000000	     89.95705863	    -18.45524921	     38.37602190	     55.88296044	     86.21643332	      0.00000000	      0.00000000
